<?xml version="1.0" encoding="UTF-8" standalone="no"?>
<!DOCTYPE svg PUBLIC "-//W3C//DTD SVG 1.1//EN" "http://www.w3.org/Graphics/SVG/1.1/DTD/svg11.dtd">
<svg version="1.1" xmlns="http://www.w3.org/2000/svg" xmlns:xlink="http://www.w3.org/1999/xlink" preserveAspectRatio="xMidYMid meet" viewBox="0 0 640 640" width="640" height="640"><defs><path d="M605.22 156.07C605.22 220.65 546.22 273.08 473.54 273.08C400.86 273.08 341.86 220.65 341.86 156.07C341.86 91.49 400.86 39.06 473.54 39.06C546.22 39.06 605.22 91.49 605.22 156.07Z" id="ed3ARoJ5F"></path><path d="M434.88 86.15L441.33 107.56L447.33 86.15L456.85 86.15L445.95 117.98L445.95 139.7L436.58 139.7L436.58 117.98L425.44 86.15L434.88 86.15ZM456.42 110.49C456.42 112.42 456.42 127.92 456.42 129.86C456.42 136.82 460.53 140.45 468.6 140.45C475.3 140.45 480.56 136.5 480.56 129.86C480.56 127.92 480.56 112.42 480.56 110.49C480.56 104.3 475.35 99.88 468.6 99.88C461.27 99.88 456.42 104.16 456.42 110.49ZM468.6 133.26C466.3 133.26 464.98 131.59 464.98 129.52C464.98 127.69 464.98 112.98 464.98 111.15C464.98 108.98 466.1 107.38 468.45 107.38C470.99 107.38 472.09 108.93 472.09 111.15C472.09 112.37 472.09 118.5 472.09 129.52C471.26 132.01 470.1 133.26 468.6 133.26ZM503.04 130.19C502.03 131.32 499.77 133.15 498.14 133.15C496.37 133.15 495.93 132.08 495.93 130.49C495.93 128.47 495.93 118.38 495.93 100.21L487.62 100.21C487.62 120.02 487.62 131.02 487.62 133.22C487.62 137.12 488.96 140.28 493.42 140.28C495.93 140.28 499.43 139.12 503.03 135.35C503.03 135.64 503.03 137.1 503.03 139.71L511.34 139.71L511.34 100.21L503.04 100.21C503.04 118.2 503.04 128.19 503.04 130.19ZM513.91 184.76C513.91 185.01 513.91 186.28 513.91 188.56L520.91 188.56C520.91 186.28 520.91 185.01 520.91 184.76C520.92 182.2 520.31 180.34 517.45 180.34C514.52 180.34 513.91 182.17 513.91 184.76ZM485.04 181.72L485.04 205.16C486.17 205.96 486.8 206.4 486.92 206.49C488.22 207.07 490.09 207.11 490.98 206.09C491.43 205.56 491.66 204.7 491.66 203.5C491.66 201.56 491.66 186.02 491.66 184.07C491.66 182.8 491.39 181.84 490.82 181.18C489.85 180.07 488.06 179.95 486.67 180.57C486.45 180.72 485.91 181.1 485.04 181.72ZM428.8 150.52C410.39 151.65 408.22 161.48 408.08 187.35C408.22 213.17 410.37 223.05 428.8 224.17C445.82 225.19 501.23 225.2 518.27 224.17C536.69 223.06 538.86 213.23 539.01 187.35C538.86 161.52 536.71 151.65 518.27 150.52C501.23 149.5 445.82 149.51 428.8 150.52ZM428.67 212.33L428.67 168.73L419.44 168.73L419.44 161.33L446.82 161.33L446.82 168.73L437.59 168.73L437.59 212.33L428.67 212.33ZM461.4 212.33C461.4 209.84 461.4 208.45 461.4 208.18C459.95 209.7 458.42 210.87 456.85 211.67C452.58 213.83 446.73 213.79 446.73 206.15C446.73 204.06 446.73 193.57 446.73 174.7L454.63 174.7C454.63 192 454.63 201.62 454.63 203.54C454.63 205.05 455.05 206.07 456.74 206.07C458.29 206.07 460.43 204.32 461.39 203.25C461.39 201.35 461.39 191.82 461.39 174.68L469.31 174.68L469.31 212.33L461.4 212.33ZM492.56 212.8C489.66 212.8 487.25 211.87 485.04 209.43C485.04 209.62 485.04 210.58 485.04 212.32L477.05 212.32L477.05 161.33L485.04 161.33C485.04 171.18 485.04 176.65 485.04 177.75C486.83 175.82 489.25 174.23 492.08 174.23C497.88 174.23 499.81 178.56 499.81 183.66C499.81 185.05 499.81 192 499.81 204.52C498.5 210.04 496.08 212.8 492.56 212.8ZM513.92 194.39C513.92 198.65 513.92 201.02 513.92 201.49C513.92 204.31 514.19 206.75 517.39 206.75C520.73 206.75 520.94 204.76 520.94 201.49C520.94 201.32 520.94 200.45 520.94 198.88L529.08 198.88C529.08 200.57 529.08 201.51 529.08 201.7C529.08 208.95 525.56 213.35 517.22 213.35C509.66 213.35 505.79 208.48 505.79 201.7C505.79 200.01 505.79 186.5 505.79 184.81C505.79 178.28 510.67 173.75 517.82 173.75C525.42 173.75 529.08 178.01 529.08 184.81C529.08 185.45 529.08 188.65 529.08 194.39L513.92 194.39ZM604.47 155.54C604.47 219.31 545.74 271.19 473.54 271.19C401.35 271.19 342.61 219.31 342.61 155.54C342.61 91.77 401.35 39.89 473.54 39.89C545.74 39.89 604.47 91.77 604.47 155.54ZM316.43 155.54C316.43 232.18 386.77 294.32 473.54 294.32C560.31 294.32 630.66 232.18 630.66 155.54C630.66 78.9 560.31 16.76 473.54 16.76C386.77 16.76 316.43 78.9 316.43 155.54Z" id="bwi6HQwdl"></path></defs><g><g><g><use xlink:href="#ed3ARoJ5F" opacity="1" fill="#ffffff" fill-opacity="1"></use></g><g><use xlink:href="#bwi6HQwdl" opacity="1" fill="#0c0c0c" fill-opacity="1"></use><g><use xlink:href="#bwi6HQwdl" opacity="1" fill-opacity="0" stroke="#000000" stroke-width="1" stroke-opacity="0"></use></g></g></g></g></svg>